<?xml version="1.0" encoding="iso-8859-1"?>
<!-- Generator: Adobe Illustrator 24.1.2, SVG Export Plug-In . SVG Version: 6.00 Build 0)  -->
<svg version="1.1" baseProfile="basic" id="Layer_1" xmlns="http://www.w3.org/2000/svg"
	xmlns:xlink="http://www.w3.org/1999/xlink" x="0px" y="0px" viewBox="0 0 32 32" xml:space="preserve" >
	<path style="fill:none;stroke:#ddf2f2;stroke-width:2;stroke-linecap:round;stroke-linejoin:round;"
		d="M25.342,16
	c0.779,0.935,1.486,1.943,2.12,3.014l-0.01,0.01c-0.343,2.11-1.444,4.032-3.107,5.383v0.01c-1.247-0.01-2.473-0.114-3.668-0.322
	c-0.426,1.143-0.946,2.255-1.559,3.336c-2.016,0.759-4.219,0.759-6.235,0c-0.613-1.081-1.133-2.193-1.559-3.336
	c-1.195,0.208-2.421,0.312-3.668,0.322v-0.01c-1.663-1.351-2.764-3.273-3.107-5.383l-0.01-0.01c0.634-1.07,1.341-2.078,2.12-3.014
	c-0.779-0.935-1.486-1.943-2.12-3.014l0.01-0.01c0.343-2.11,1.444-4.032,3.107-5.383v-0.01c1.247,0.01,2.473,0.114,3.668,0.322
	c0.426-1.143,0.946-2.255,1.559-3.336c2.016-0.759,4.219-0.759,6.235,0c0.613,1.081,1.133,2.193,1.559,3.336
	c1.195-0.208,2.421-0.312,3.668-0.322v0.01c1.663,1.351,2.764,3.273,3.107,5.383l0.01,0.01C26.828,14.057,26.122,15.065,25.342,16z" />
	<circle style="fill:none;stroke:#ddf2f2;stroke-width:2;stroke-linecap:round;stroke-linejoin:round;" cx="16" cy="16"
		r="4" />
</svg>