<svg xmlns="http://www.w3.org/2000/svg" viewBox="0 0 32 32">
    <path
        d="M 16.105469 2.5351562 C 15.649335 2.5315682 15.193947 2.6430484 14.791016 2.8710938 C 12.204135 4.3291982 9.3582739 6.0810231 6.3964844 7.7871094 A 1.0001 1.0001 0 0 0 6.390625 7.7910156 C 4.934111 8.6442641 3.7537333 9.984391 3.5507812 11.599609 A 1.0001 1.0001 0 0 0 3.5507812 11.601562 C 3.070352 15.475925 3.2819546 19.358573 4.1835938 23.226562 A 1.0001 1.0001 0 0 0 4.1894531 23.246094 C 4.4585727 24.308167 5.1073155 25.27809 5.9121094 26.095703 C 6.7169032 26.913317 7.6791299 27.579013 8.7421875 27.863281 A 1.0001 1.0001 0 0 0 8.7617188 27.869141 C 13.579059 29.056186 18.420941 29.056186 23.238281 27.869141 A 1.0001 1.0001 0 0 0 23.257812 27.863281 C 24.320871 27.579013 25.283157 26.913542 26.087891 26.095703 C 26.892624 25.277864 27.542058 24.306963 27.810547 23.244141 A 1.0001 1.0001 0 0 0 27.814453 23.226562 C 28.718163 19.352345 28.930776 15.464439 28.447266 11.583984 A 1.0001 1.0001 0 0 0 28.445312 11.582031 C 28.242468 9.9798449 27.07737 8.6471954 25.634766 7.7910156 A 1.0001 1.0001 0 0 0 25.628906 7.7871094 C 22.732857 6.095988 19.951052 4.355459 17.417969 2.8886719 C 17.01807 2.6566693 16.561603 2.5387444 16.105469 2.5351562 z M 16.091797 4.5097656 C 16.190422 4.5107078 16.289962 4.5471445 16.414062 4.6191406 C 18.902981 6.0603535 21.691183 7.8027971 24.621094 9.5136719 C 25.63428 10.117407 26.372813 11.145633 26.460938 11.832031 C 26.91478 15.474383 26.718353 19.107322 25.869141 22.755859 C 25.727048 23.31585 25.268911 24.076675 24.662109 24.693359 C 24.055311 25.31004 23.303878 25.779371 22.744141 25.929688 C 21.997265 26.11325 21.253393 26.082382 20.507812 26.205078 C 20.945272 23.683317 20.958002 21.066257 20.421875 18.570312 A 1.0001 1.0001 0 0 0 20.396484 18.341797 A 1.0001 1.0001 0 0 0 20.375 18.261719 A 1.0001 1.0001 0 0 0 20.371094 18.246094 A 1.0001 1.0001 0 0 0 20.363281 18.222656 A 1.0001 1.0001 0 0 0 20.355469 18.203125 A 1.0001 1.0001 0 0 0 20.324219 18.130859 A 1.0001 1.0001 0 0 0 20.277344 18.042969 A 1.0001 1.0001 0 0 0 19.386719 17.550781 C 17.224714 16.610059 14.8144 16.617036 12.652344 17.554688 A 1.0001 1.0001 0 0 0 11.603516 18.341797 C 11.602316 18.346897 11.602764 18.352322 11.601562 18.357422 A 1.0001 1.0001 0 0 0 11.578125 18.564453 A 1.0001 1.0001 0 0 0 11.578125 18.568359 C 11.04162 21.064863 11.054622 23.68268 11.492188 26.205078 C 10.746607 26.082382 10.002735 26.113247 9.2558594 25.929688 C 8.6960893 25.779394 7.9448786 25.310016 7.3378906 24.693359 C 6.7320554 24.077874 6.2742554 23.319202 6.1308594 22.759766 C 5.2833441 19.117002 5.0844626 15.486039 5.5351562 11.849609 L 5.5351562 11.847656 C 5.623024 11.154921 6.3775335 10.115977 7.4023438 9.515625 C 10.394786 7.7916807 13.239164 6.0397011 15.773438 4.6113281 A 1.0001 1.0001 0 0 0 15.775391 4.6113281 C 15.895459 4.5433734 15.993171 4.5088235 16.091797 4.5097656 z M 16 18.744141 C 16.858834 18.742541 17.69746 19.001507 18.505859 19.339844 C 18.957083 21.671327 18.962039 24.134409 18.478516 26.455078 C 16.827372 26.604628 15.172628 26.604628 13.521484 26.455078 C 13.038759 24.138253 13.043261 21.679682 13.492188 19.351562 C 14.299845 19.009047 15.139857 18.745697 16 18.744141 z"  fill="#ddf2f2"/>
</svg>